<svg xmlns="http://www.w3.org/2000/svg" width="191.01" height="71.051" viewBox="0 0 50.538 18.799"><path d="M72.956 111.01h49.151a.376.376 45 0 1 .376.376v17.413a1.01 1.01 135 0 1-1.01 1.01H72.32a.376.376 45 0 1-.376-.375V112.02a1.01 1.01 135 0 1 1.011-1.011z" style="fill:#fff;stroke-width:.265" transform="translate(-71.945 -111.01)"/><path d="M85.147 112.42h35.229a.651.651 45 0 1 .651.651v14.132a1.495 1.495 135 0 1-1.495 1.495H84.303a.651.651 45 0 1-.651-.651v-14.132a1.495 1.495 135 0 1 1.495-1.495z" style="paint-order:stroke fill markers;stroke-width:.265" transform="translate(-71.945 -111.01)"/><g aria-label="DDAM" style="stroke-width:.26458"><path d="M73.264 126.48v-12.039h3.043q2.067 0 3.307 1.298 1.248 1.298 1.257 3.737v1.943q0 2.456-1.249 3.762-1.248 1.298-3.406 1.298zm2.075-10.31v8.59h.877q1.447 0 2.017-.81.579-.81.579-2.53v-1.926q0-1.778-.57-2.547-.571-.777-1.935-.777z" style="fill:#3459e6" transform="translate(-71.945 -111.01)"/><path d="M85.509 126.48v-12.039h2.828q1.918 0 3.092 1.24 1.182 1.24 1.182 3.572v2.414q0 2.34-1.182 3.58-1.182 1.233-3.159 1.233zm.943-11.154v10.269h1.819q1.628 0 2.513-1.009.893-1.017.893-2.918v-2.431q0-1.927-.893-2.919t-2.447-.992zm9.781 11.154 3.837-12.039h.876l3.836 12.039h-.984l-1.033-3.365H98.25l-1.034 3.365zm2.29-4.25h3.969l-1.984-6.466zm15.267 2.8 3.655-10.583h1.248v12.039h-.942v-5.226l.082-5.233-3.68 10.459h-.727l-3.68-10.434.092 5.176v5.258h-.943v-12.039h1.24z" style="fill:#fff" transform="translate(-71.945 -111.01)"/></g></svg>