<svg width="50.538mm" height="18.799mm" version="1.1" viewBox="0 0 50.538 18.799" xmlns="http://www.w3.org/2000/svg"><g transform="translate(-71.945 -111.01)"><path x="71.94548" y="111.00872" width="50.537994" height="18.799366" d="m72.956 111.01h49.151a0.37599 0.37599 45 0 1 0.37598 0.37599v17.413a1.0108 1.0108 135 0 1-1.0108 1.0108h-49.151a0.37599 0.37599 45 0 1-0.37599-0.37599v-17.413a1.0108 1.0108 135 0 1 1.0108-1.0108z" fill="#fff" stroke-width=".265"/><path x="83.652122" y="112.42445" width="37.374653" height="16.278336" d="m85.147 112.42h35.229a0.65113 0.65113 45 0 1 0.65114 0.65114v14.132a1.495 1.495 135 0 1-1.495 1.495h-35.229a0.65113 0.65113 45 0 1-0.65113-0.65113v-14.132a1.495 1.495 135 0 1 1.495-1.495z" stroke-width=".265" style="paint-order:stroke fill markers"/><text transform="scale(.26458)" fill-opacity="0" font-family="Lato" font-size="14px" letter-spacing="0px" word-spacing="0px" style="line-height:1.25;shape-inside:url(#rect113);white-space:pre" xml:space="preserve"/><text x="72.155617" y="126.48301" font-family="'Roboto Condensed'" font-size="16.933px" letter-spacing="2.3072px" stroke-width=".26458" word-spacing="0px" style="line-height:1.25" xml:space="preserve"><tspan x="72.155617" y="126.48301" font-family="'Roboto Condensed'" font-size="16.933px" font-weight="300" stroke-width=".26458">D<tspan fill="#ffffff">DAM</tspan></tspan></text></g></svg>
